<svg xmlns="http://www.w3.org/2000/svg" viewBox="0 0 3000 3000"><title>HackNotts Transparent</title><path d="M2514.56,295.73c.46-16.67-16.69-16.67-16.69-16.67H2044.06c-14.5,0-15.83,16.67-15.83,16.67l-41,475.5-269.3.18s-25.45-459-26.41-475.68-15.75-16.67-15.75-16.67-335.88.09-351.88,0-15.75,16.63-15.75,16.63l-25.9,475.67H1007.88s-35-459-36.43-475.66-16.84-16.67-16.84-16.67H504.89C485,279.06,485,295.73,485,295.73s7.17,940.16,7.87,962.83,21.71,22.1,21.71,22.1l932.27,10.39s-.88,1429.12,0,1467.4,37.39,38.28,37.39,38.28h989.65c41.15,0,41.15-38.28,41.15-38.28S2514.09,312.4,2514.56,295.73ZM2195.93,2027.61c.58,20.15-8.87,33.86-22.18,41.21q-176.05,144.09-352,288.15c-31.84,26.06-83.8,11.34-83.8-34.81v-62.75c0-22.25-5.31-54.5,6.49-74.64,15.4-26.29,48.75-47.48,70.76-67.49q79.5-72.24,159-144.5-79.48-72.48-158.91-145c-22.18-20.22-67.26-48.27-75.84-79.44-5.8-21.11-1.51-47.5-1.51-69V1623.5c0-45.5,52.21-61.75,83.8-34.81q120.89,103.05,241.5,206.1l111,94.65C2206.41,1916.84,2194.82,1989.35,2195.93,2027.61Z" fill="#56b447" stroke="#56b447" stroke-miterlimit="10"/><path d="M1205.14,1749.71c5.8-21.11,1.51-47.5,1.51-69v-55.89c0-45.5-52.21-61.75-83.8-34.81q-120.88,103-241.5,206.11-55.5,47.31-111,94.64c-32.16,27.4-20.56,99.91-21.67,138.17-.58,20.15,8.87,33.86,22.17,41.21q176.07,144.09,352,288.15c31.84,26.06,83.8,11.35,83.8-34.81v-62.75c0-22.25,5.31-54.5-6.49-74.64-15.4-26.28-48.76-47.48-70.76-67.48q-79.5-72.26-159-144.51,79.47-72.48,158.91-145C1151.48,1808.93,1196.56,1780.88,1205.14,1749.71Z" fill="#56b447" stroke="#56b447" stroke-miterlimit="10"/></svg>